<svg width="1440" height="1426" viewBox="0 0 1440 1426" fill="none" xmlns="http://www.w3.org/2000/svg">
<g opacity="0.6">
<path d="M-532.559 481.117C-389.392 246.95 8.24139 -162.983 453.441 70.6166C1009.94 362.617 1057.44 765.116 1569.94 611.116" stroke="#4F4F4F"/>
<path d="M-409.712 1266.88C-332.613 1003.46 -55.7298 503.971 435.003 613.301C1048.42 749.963 1199.31 1126.12 1653.86 843.719" stroke="#F99C04"/>
<path d="M-528.548 506.983C-387.381 271.606 6.74714 -141.699 453.92 88.1007C1012.89 375.351 1063.81 777.431 1574.98 619.072" stroke="#54514C"/>
<path d="M-524.539 532.815C-385.382 296.243 5.2118 -120.403 454.326 105.58C1015.72 388.06 1070.07 789.692 1579.87 626.985" stroke="#5A544A"/>
<path d="M-520.53 558.611C-383.392 320.864 3.63938 -99.0941 454.662 123.056C1018.44 400.744 1076.21 801.899 1584.61 634.857" stroke="#5F5647"/>
<path d="M-516.521 584.373C-381.413 345.466 2.02804 -77.7723 454.926 140.529C1021.05 413.406 1082.23 814.054 1589.19 642.688" stroke="#655945"/>
<path d="M-512.515 610.1C-379.446 370.051 0.375994 -56.4373 455.117 157.999C1023.54 426.045 1088.13 826.157 1593.61 650.48" stroke="#6A5B43"/>
<path d="M-508.509 635.793C-377.489 394.619 -1.31279 -35.0887 455.238 175.467C1025.93 438.662 1093.92 838.21 1597.89 658.235" stroke="#705E40"/>
<path d="M-504.504 661.45C-375.543 419.17 -3.04017 -13.7263 455.287 192.934C1028.2 451.259 1099.59 850.214 1602.01 665.953" stroke="#75603E"/>
<path d="M-500.504 687.072C-373.611 443.702 -4.80789 7.64938 455.262 210.399C1030.35 463.836 1105.14 862.168 1605.97 673.635" stroke="#7A633B"/>
<path d="M-496.504 712.66C-371.688 468.218 -6.61205 29.0406 455.168 227.865C1032.39 476.394 1110.57 874.075 1609.78 681.284" stroke="#806539"/>
<path d="M-492.506 738.213C-369.777 492.717 -8.45436 50.4466 455.002 245.331C1034.32 488.936 1115.89 885.936 1613.43 688.9" stroke="#856837"/>
<path d="M-488.514 763.732C-367.88 517.2 -10.3367 71.8679 454.763 262.798C1036.14 501.461 1121.08 897.752 1616.93 696.486" stroke="#8B6A34"/>
<path d="M-484.523 789.216C-365.993 541.665 -12.255 93.3046 454.454 280.267C1037.84 513.97 1126.15 909.523 1620.27 704.042" stroke="#906D32"/>
<path d="M-480.535 814.665C-364.118 566.114 -14.2112 114.757 454.073 297.738C1039.43 526.464 1131.11 921.251 1623.46 711.569" stroke="#966F2F"/>
<path d="M-476.553 840.08C-362.257 590.547 -16.2069 136.226 453.619 315.212C1040.9 538.945 1135.94 932.937 1626.48 719.069" stroke="#9B722D"/>
<path d="M-472.574 865.46C-360.406 614.962 -18.2383 157.711 453.095 332.69C1042.26 551.413 1140.65 944.581 1629.36 726.544" stroke="#A1742B"/>
<path d="M-468.599 890.806C-358.569 639.362 -20.307 179.213 452.499 350.171C1043.51 563.869 1145.24 956.185 1632.07 733.994" stroke="#A67728"/>
<path d="M-464.628 916.117C-356.743 663.745 -22.413 200.732 451.832 367.658C1044.64 576.314 1149.71 967.75 1634.63 741.421" stroke="#AC7926"/>
<path d="M-460.665 941.394C-354.933 688.112 -24.558 222.269 451.091 385.149C1045.65 588.75 1154.06 979.276 1637.03 748.826" stroke="#B17C23"/>
<path d="M-456.705 966.636C-353.134 712.463 -26.738 243.823 450.281 402.647C1046.55 601.177 1158.28 990.766 1639.27 756.21" stroke="#B77E21"/>
<path d="M-452.75 991.844C-351.348 736.798 -28.9548 265.395 449.399 420.151C1047.34 613.595 1162.38 1002.22 1641.36 763.576" stroke="#BC811F"/>
<path d="M-448.804 1017.02C-349.577 761.117 -31.2102 286.986 448.445 437.662C1048.01 626.007 1166.36 1013.64 1643.29 770.923" stroke="#C2831C"/>
<path d="M-444.861 1042.16C-347.818 785.421 -33.5002 308.596 447.42 455.181C1048.57 638.414 1170.21 1025.02 1645.06 778.255" stroke="#C7861A"/>
<path d="M-440.925 1067.26C-346.072 809.709 -35.8264 330.224 446.325 472.709C1049.01 650.815 1173.94 1036.37 1646.67 785.571" stroke="#CD8817"/>
<path d="M-436.998 1092.33C-344.341 833.98 -38.1908 351.871 445.157 490.244C1049.34 663.211 1177.55 1047.69 1648.12 792.872" stroke="#D28B15"/>
<path d="M-433.076 1117.37C-342.623 858.237 -40.5892 373.538 443.919 507.79C1049.55 675.605 1181.03 1058.98 1649.42 800.163" stroke="#D88D13"/>
<path d="M-429.161 1142.37C-340.918 882.479 -43.0235 395.225 442.611 525.346C1049.65 687.997 1184.39 1070.24 1650.56 807.442" stroke="#DD9010"/>
<path d="M-425.256 1167.34C-339.23 906.706 -45.4953 416.933 441.229 542.913C1049.64 700.389 1187.62 1081.47 1651.53 814.711" stroke="#E3920E"/>
<path d="M-421.357 1192.27C-337.553 930.918 -48.0007 438.661 439.779 560.491C1049.5 712.78 1190.73 1092.67 1652.36 821.972" stroke="#E8950B"/>
<path d="M-417.466 1217.18C-335.891 955.114 -50.5413 460.409 438.259 578.082C1049.26 725.172 1193.72 1103.85 1653.02 829.226" stroke="#EE9709"/>
<path d="M-413.586 1242.04C-334.246 979.296 -53.1191 482.179 436.665 595.684C1048.9 737.566 1196.57 1115 1653.52 836.475" stroke="#F39A07"/>
</g>
</svg>
